<svg xmlns="http://www.w3.org/2000/svg" viewBox="0 0 735 980"><title>Fichier 3</title><g id="Calque_2" data-name="Calque 2"><g id="Calque_1-2" data-name="Calque 1"><path d="M367.5,0C164.5,0,0,164.5,0,367.5S367.5,980,367.5,980,735,570.5,735,367.5,570.5,0,367.5,0Zm0,612.5c-135.3,0-245-109.7-245-245s109.7-245,245-245,245,109.7,245,245S502.8,612.5,367.5,612.5Z"/><path d="M358.84,201.89c-6.24.64-10.56,1.93-11.13,3.38a2.43,2.43,0,0,0,1.32,2.85c1.24.61,1.28.64,2.67,9.43a59.2,59.2,0,0,0,1.73,7.76c.48,1.42.9,2.63.9,2.7a20.54,20.54,0,0,1-3.46.36c-8.72.64-15.71,2.42-16.28,4.09-.71,2.17,4,5.2,11.47,7.44a55.48,55.48,0,0,0,9.77,2.21,5.43,5.43,0,0,1,3.87,2c.3.65.23,1.07-.3,2-.64,1.11-.67,1.46-.22,3.67.26,1.32,1,4,1.61,6a22.8,22.8,0,0,1,1.21,6.12c0,2.49,0,2.63-1.17,3.63-1.47,1.24-1.54,2-.41,4.05.64,1.21.82,2.1.79,4.52,0,5-1,6.66-4.44,7.44-2.22.54-4.92,1.92-5.45,2.88-1.13,2,.26,3.7,4.62,5.7,3.05,1.39,3.8,2.31,4.4,5.37s.15,5.13-1.35,6.73a5.81,5.81,0,0,0-1.28,1.67,3,3,0,0,0,.94,1.17c.94.86,1.47,2,1.88,4.38l.23,1.35-1.81-.21c-13.15-1.67-23-5.41-32.62-12.49-13.87-10.14-22.9-23.7-26.05-39.29-1.39-6.62-1.39-6.58-.3-7.58.79-.75,1.39-.89,4.24-1.1,4.25-.32,10.9-1.71,13.46-2.85a49.46,49.46,0,0,0,9.21-5.73c.49-.5.75-1.07.6-1.42-.53-1.39-6-2.74-13.83-3.45-2.56-.22-4.66-.43-4.74-.47a3.08,3.08,0,0,1,.3-1.06,88.45,88.45,0,0,0,2.63-12.07c.64-4,.87-4.69,1.73-5.44,1.21-1,1.06-1.82-.52-2.81-2.6-1.68-9.55-2.42-20.11-2.17-12.71.28-16.5,1.67-13.65,4.91.68.74,1,1.74,1.36,4.13.41,2.88,2.25,11.74,2.82,13.48.22.71,0,.75-4.78,1.18-7.85.67-13.12,1.88-13.64,3.13-.3.75,1.16,2.17,4.47,4.34,5.71,3.7,10.22,5.2,18.53,6.09,4.55.46,4.85.78,5.19,5.44,1.2,16.76,8.3,31.07,21.46,43.38a66.91,66.91,0,0,0,12,9.25,71.41,71.41,0,0,0,28.94,10.25c2.07.21,4.18.5,4.66.57l.91.18-.23,4.87a49.16,49.16,0,0,1-2.33,13.78c-1.2,3.7-2.74,6-5,7.25-2.82,1.64-3.87,2.53-3.87,3.28a9.18,9.18,0,0,0,2.29,3c3.87,3.92,4.7,6.62,4.92,15.77l.15,4.73L354,371.5a130.41,130.41,0,0,1-62.36-21.57c-16.68-11.28-31.08-26.22-40.7-42.17-8.8-14.62-14.21-31.31-16.28-50.49l-.56-5.27.82-.82c.76-.68,1.43-.82,4.7-1,7.52-.46,12.59-1.77,17.44-4.52,4-2.31,6.36-4.12,6.36-5,0-1.46-5.87-3-14.55-3.88l-4.17-.43.52-1.42A117.88,117.88,0,0,0,248,221.57c.38-2.27.64-3.06,1.36-3.7,3.53-3.13-4.25-5.26-19.25-5.3-9.69,0-15.37.92-16.08,2.67a2.1,2.1,0,0,0,1.09,2.21c.33.21.82,1.88,1.31,4.91a99.06,99.06,0,0,0,2.59,12c.64,1.57.53,1.68-1.46,1.68a87.46,87.46,0,0,0-12,1.28c-4.89,1-5.9,1.95-3.83,3.77a52.5,52.5,0,0,0,9.28,5.84,61.48,61.48,0,0,0,13.27,3c5,.53,4.81.24,5.07,8a114.11,114.11,0,0,0,15.38,52.63c8.68,15,22.14,30,37.13,41.32a188.16,188.16,0,0,0,19,12.06,137.89,137.89,0,0,0,48.64,14.45c7.44.71,7.14.64,7.14,1.6s-2.14,5.09-3.12,6.19a9.32,9.32,0,0,1-2.14,1.18c-2,.82-2.63,1.49-2.63,2.95a2.83,2.83,0,0,1-2.29,2.85,4.8,4.8,0,0,0-2,1.35c-1,1.25-.45,2.39,1.62,3.6,1.65,1,2.29,1.88,2.29,3.16s1.32,2.6,3.88,3.74a15.37,15.37,0,0,1,3.42,2.17c1.09,1.07,1.12,1.28,1.5,6a40.54,40.54,0,0,1-.08,8.08c-.45,3.35-2.63,13.13-4.62,20.79-1.54,5.87-1.43,8.07.53,11.74l1.43,2.63-1.06.82c-.9.68-1,.85-.49,1.39a4.35,4.35,0,0,0,1.43.92c.53.22.83.57.75.93s-.75.71-2.59,1c-2.59.39-4.17,1.13-4.85,2.27-.3.57-.19.93.6,1.78s1.66,1.32,6.13,2.49c1.35.36,1.39,1,.08,1.64-1.51.71-1.62,2.17-.23,2.67.53.18.94.46.94.64a28.71,28.71,0,0,1-1.13,3.2c-3.38,8.76-3,18,1.73,41,1.24,6,1.32,6.76.94,8.44-.56,2.27-1.62,3.63-3.38,4.3-2.78,1.11-3.46,2.67-1.77,4.17l.94.78-1.2.43a36.07,36.07,0,0,1-5.53.81c-8,.64-23.83,2.5-28.94,3.38-2.78.5-7.55,1.29-10.64,1.78-10.33,1.61-17.78,3.42-21.76,5.34-2.22,1.07-7.25,5.2-8,6.55s-.75,5.41,0,6.69c2.93,5.27,17.47,9.36,42.7,12,37.4,3.88,88.25,2.56,116.78-3,9.28-1.81,14.66-3.52,18.42-5.91,3.27-2.06,4.4-4.73,3.49-8.29-.45-1.81-1.05-2.56-4.39-5.41-3.91-3.31-11.73-5.69-25.94-7.9-3.08-.49-7.25-1.17-9.32-1.56s-6.62-1.07-10.15-1.46-7.67-.93-9.21-1.1-5.6-.61-9-.89a45.44,45.44,0,0,1-7.48-1c-1.28-.5-1.28-.53-.45-.93a2.23,2.23,0,0,0,1.16-2.66A5.23,5.23,0,0,0,380.6,530c-3.83-1.74-4.58-4.62-3-11.6,2.26-10,4.25-23.73,4.25-29.53a33.73,33.73,0,0,0-2.1-12.35c-1.17-3.2-1.24-4.06-.23-4.31a1.43,1.43,0,0,0,1-.75c.26-.67-.83-2-1.62-2-.56,0-.67-.92-.11-1.24a16.89,16.89,0,0,1,2.52-.75c6.61-1.64,6.61-4.95,0-6-3.16-.53-3.72-1.28-1.58-2.13.75-.29,1.36-.68,1.36-.89,0-.72-.49-1.46-.94-1.46-1,0-.91-.64.48-3.21,1.88-3.45,2-6.19.68-11.42-2.07-8-4.32-18.11-4.74-21.32a29.5,29.5,0,0,1,0-8.11c.57-5.55.76-5.87,4.55-7.76,2.78-1.38,4.1-2.59,4.1-3.84s.9-2.38,2.44-3.38c1.92-1.25,2.33-1.89,1.84-3.13-.26-.71-.82-1.14-2-1.57-2-.67-2.67-1.46-2.67-3.17,0-1.53-.56-2.09-3-3.09-1.47-.64-1.92-1.07-3.12-3.17a15.51,15.51,0,0,1-1.62-3.56c-.18-1.14-.18-1.17,1.43-1.31,21.54-2.32,33.34-5.31,48.64-12.35,22.82-10.46,44-28.72,58.07-50,11.92-18,18.35-38,19.4-60.35.15-3.17.45-5.45.67-5.63a19.7,19.7,0,0,1,4.37-.74c7.14-.75,12.74-2.28,16.53-4.56,3.42-2,7.07-4.66,7.3-5.3.37-.93-.83-1.78-3.35-2.42a94.42,94.42,0,0,0-13.68-1.6c-1.77,0-2-.07-1.73-.64.71-1.5,1.77-6,2.71-11.39.82-4.84,1.16-6,1.88-6.76,1.72-1.75.86-2.89-2.9-3.88-2.07-.54-4-.64-12.78-.61-11,0-14.17.36-17.85,1.89-1.47.6-1.69.85-1.69,1.78a1.84,1.84,0,0,0,.78,1.56c.61.43.91,1.46,1.7,5.8a101.89,101.89,0,0,0,2.59,11.78c.23.72.11.79-2.33,1a111.12,111.12,0,0,0-13.12,2.1c-2.37.68-3.38,1.64-2.82,2.63s7.52,5.31,10.11,6.3A53.91,53.91,0,0,0,494,250.15c5.23.35,5.38.53,5,5.48-1.92,22.77-9.1,42.7-21.88,60.5-6.8,9.53-18.83,21.77-28.49,29.11a128.76,128.76,0,0,1-55.14,24.41,155.6,155.6,0,0,1-16,2h-1.12l.11-4c.26-9.43,1.16-12.49,4.77-16.19,1.36-1.39,2.45-2.81,2.45-3.21,0-.78-1.17-1.77-3.91-3.38-2.9-1.7-4.55-4.84-6.05-11.56a66.43,66.43,0,0,1-1.24-12.53l.11-1.92,3.94-.43a73.74,73.74,0,0,0,47.29-24.87,63.61,63.61,0,0,0,16.28-37.19c.52-5.91.48-5.84,6-6.4a54,54,0,0,0,13-3c2.11-.93,8.61-5.06,9.48-6,1.84-2.1-2.48-3.56-13.31-4.52-2.67-.25-4.92-.47-5-.54s0-.42.26-.82c.49-.85,2-7.5,2.86-13,.53-3.2.79-4,1.54-4.7q2.94-2.56-4.17-4.05c-3.5-.75-21.65-.68-25.33.14-5.34,1.14-6.69,2.38-4.82,4.48.72.82,1.06,1.89,1.58,5.09.57,3.7,2.07,10.75,2.67,12.63.23.75.12.82-1.39.82a91.86,91.86,0,0,0-13.68,2c-2.29.71-3.65,1.67-3.35,2.42.49,1.17,8.05,5.8,11.39,7a58.44,58.44,0,0,0,11.81,2.27c2.44.22,3.12.43,3.91,1.18s.93,1.07.71,3.06c-1.8,15.44-9.85,29.82-22.78,40.67a67.15,67.15,0,0,1-36.57,15.59l-2.18.25.22-1c.68-3.06,1.13-4.06,2.11-4.91s1-1,.71-1.61c-.22-.39-.56-.71-.75-.71s-.71-.53-1.13-1.17c-1.35-2.1-.82-8,.91-9.82a8.34,8.34,0,0,1,2.44-1.25,13.53,13.53,0,0,0,3.61-2.06c2.06-1.71,2.25-3,.64-4.52a14,14,0,0,0-6.06-2.53c-1.8,0-3-2.88-3-7,0-2.42.15-3.46.75-4.52,1-1.93.94-2.85-.37-4.13a5.34,5.34,0,0,1-1.32-2.24c-.26-1.25.6-5.56,1.65-8.51a32,32,0,0,0,1.21-4.7c.45-2.45.41-2.84-.15-3.8-.87-1.43-.83-1.78.41-2.89.83-.74,1.73-1.06,4.4-1.49,7.74-1.25,15.11-3.92,18.38-6.62,1.39-1.18,1.73-1.67,1.65-2.42-.22-2-5.56-3.52-15-4.34-2.59-.25-4.73-.46-4.77-.5a6.86,6.86,0,0,1,.64-1.82,84.36,84.36,0,0,0,2.63-12.59c.56-4.1.94-5.06,2.25-5.77,2.07-1.1,1.28-3.31-1.61-4.48C379.85,202,365.9,201.18,358.84,201.89Z"/></g></g></svg>