<svg xmlns="http://www.w3.org/2000/svg" viewBox="0 0 735 980"><title>Fichier 4</title><g id="Calque_2" data-name="Calque 2"><g id="Calque_1-2" data-name="Calque 1"><path d="M367.5,0C164.5,0,0,164.5,0,367.5S367.5,980,367.5,980,735,570.5,735,367.5,570.5,0,367.5,0Zm0,612.5c-135.3,0-245-109.7-245-245s109.7-245,245-245,245,109.7,245,245S502.8,612.5,367.5,612.5Z"/><path d="M206.68,379.17,220,377.69c6.85-.1,21.17.37,26.22.86,7.2.72,23.19,3.2,27.41,4.25l2.17.56.06,2.63c0,1.46.22,11,.41,21.24s.52,28.37.8,40.3.47,24.59.47,28.12l0,6.45.87.47a4.94,4.94,0,0,0,1.79.46h.93l.19-5.67c.09-3.1.25-9.33.34-13.86s.37-17.77.62-29.45.53-27.47.65-35.1c.16-9.55.31-14,.56-14.17a13,13,0,0,1,2.36-.8c1.58-.44,3.65-.59,9.61-.68a102.49,102.49,0,0,1,16.89.8c16.5,1.68,21.61,2,43.1,2.64a484.23,484.23,0,0,0,65.1-2.3c3.57-.4,9.24-.71,14.42-.83,8-.16,8.71-.13,11.59.49,4.71,1,4.22-.28,4.25,11.13,0,5.4.15,27.07.25,48.12l.18,38.29.78.09a3.28,3.28,0,0,0,1.86-.62l1.08-.75.38-10.35c.18-5.7.55-19.47.83-30.54s.65-25.05.84-31,.43-14,.53-17.83l.21-7,5.89-1.15a268.64,268.64,0,0,1,34.11-4.12c8.89-.5,30.69-.62,31-.22l7.41.78,1.58.18c3,.4,2.91.31,3.1,2.76.18,2.17.53,16.28,1.11,46.41.81,41,1,47.9,1.34,48.3s1,.37,2.35.31l2.05-.09.19-10.2c1.21-63.59,1.52-100.29,1.3-150L549,273h2.27v-5.74L549,265.3a118.53,118.53,0,0,1-10.38-11.16,13.21,13.21,0,0,0-2.14-2.17c-.13,0-47.1.16-104.39.31s-131.85.19-165.7.09l-61.54-.15-2.86,2.6a88.72,88.72,0,0,1-10.1,7.44c-4,2.64-7.41,5-7.6,5.21a10.56,10.56,0,0,0-.4,2.88l-.13,2.48,1.59.1,1.58.09.18,62.53c.22,58.57.37,72.14,1.15,92.3.19,4.43.46,16.92.62,27.74s.4,20.15.5,20.68c.18,1,.21,1,1.89,1,1.42,0,1.83-.12,2.54-.86l.87-.84.18-15.19c.78-55.56,1.21-80.64,1.43-80.86a35.24,35.24,0,0,1,5.33-.31l5.09-.06"/></g></g></svg>