<svg xmlns="http://www.w3.org/2000/svg" viewBox="0 0 735 980"><title>Fichier 2</title><g id="Calque_2" data-name="Calque 2"><g id="Calque_1-2" data-name="Calque 1"><path d="M367.5,0C164.5,0,0,164.5,0,367.5S367.5,980,367.5,980,735,570.5,735,367.5,570.5,0,367.5,0Zm0,612.5c-135.3,0-245-109.7-245-245s109.7-245,245-245,245,109.7,245,245S502.8,612.5,367.5,612.5Z"/><path d="M357.35,160.48c-.18.07-6.51.29-14,.5-34.48,1-46.57,1.84-60.95,4.25-6.33,1-7.91,2.55-9.89,9.27-1.33,4.57-1.22,5.4.76,7.77,2.37,2.77,3.2,3.2,5.18,2.84a29.81,29.81,0,0,1,6.4.21c4.38.44,5,.62,7.37,1.84a23,23,0,0,1,4.89,3.63c2.84,2.81,2.62,3.38-.86,2.05-6.94-2.59-15.5-1.8-25,2.34-12.05,5.25-19.46,14.2-23.63,28.55-2.08,7.19-2.73,13.16-2.73,24.84v10.07l1.33,6.47c.72,3.56,1.8,9.71,2.37,13.67,1.15,8,1.84,11.18,5.22,24.52a128.57,128.57,0,0,1,2.91,13.91l.57,4.71-1.43,6.69c-2.77,12.66-4.89,18-9.75,24.16A68.59,68.59,0,0,0,238.55,365a164.67,164.67,0,0,0-6.83,20.24c-2.41,9.42-3.16,25.14-2,39.88,1.43,18.27,2.8,25.38,6.9,36.5,1,2.66,2.26,6.22,2.8,7.91,5.51,16.93,15.25,34,26.18,45.8C278,528.71,288.24,537.27,303,546.4c2.12,1.33,2.41,1.66,2.23,2.34a18.5,18.5,0,0,0-.47,2.77,7.85,7.85,0,0,1-.75,2.8c-.4.58-.61,2.12-.72,4.75-.18,4.67.5,7.19,3.06,11,4.78,7.19,11.72,11.87,22.43,15.21a139.69,139.69,0,0,0,48.87,5.47c11.61-.69,18.8-2,27.68-5,12.95-4.43,20.43-10,23.77-17.69,1.26-2.92,1.19-9.35-.14-14.85-1.12-4.5-1.12-4.57-.51-4.57.79,0,15.79-8.27,19.13-10.57,7.77-5.32,19.85-16.47,28.48-26.29,6.72-7.65,13.81-21.1,18.63-35.38,6.22-18.44,8-25.85,10.14-42.82,1.25-9.92,1.29-20.17.14-32.9-1.58-17.48-4-26.43-11.65-42.79a113.38,113.38,0,0,1-6.9-19.42c-1.59-5.68-1.62-5.89-1.66-11.68-.07-5.36,0-6.65,1.22-13.49.72-4.17,2.05-11.11,2.95-15.46,1.51-7.22,2.48-12.73,5.61-31.1a120.19,120.19,0,0,0,1.08-26.89,71.76,71.76,0,0,0-4.6-17,66.27,66.27,0,0,0-9.89-14c-3.2-3.41-11.47-8.41-16.86-10.14a36.8,36.8,0,0,0-17.66-1.11,34.12,34.12,0,0,0-9.13,3.24c-2,1.33-1.33-.36,1.94-4.75a40.3,40.3,0,0,1,3.56-4.17c2.41-2.12,8-5.18,14.6-8,8.92-3.78,9.64-4.17,10.61-6,.79-1.44.82-1.73.46-3.67a11.71,11.71,0,0,0-3.88-6.55c-1.55-1.22-5.72-2.8-8.92-3.34-6.36-1.08-20.06-1.8-52.31-2.73-10.58-.33-23.45-.72-28.59-.9C365.77,160.3,358.07,160.23,357.35,160.48ZM294.57,216c2.95.94,5.29,2.84,11.72,9.42a50.55,50.55,0,0,1,11.58,16.9c4.32,9.67,5.75,15.72,6.19,26.18.57,13.48-.9,22.18-5.25,31.82-1.95,4.21-4.71,9.17-5.51,9.78a17.57,17.57,0,0,1-3.59,1.37,138.94,138.94,0,0,0-20.1,7.58l-7.41,3.42-.79-.94c-1-1.07-1-1.79-.29-4.49.44-1.58.47-2.84.18-6.47a47,47,0,0,0-.86-6.47c-.29-1.08-1-5-1.65-8.63s-1.91-10.79-2.88-15.82c-3.38-17.77-4.71-28.81-4.67-38.84a49.6,49.6,0,0,1,3-14.38,24,24,0,0,1,3.09-4.57,12.79,12.79,0,0,1,5.61-4.24C288.17,215.13,290.62,214.81,294.57,216Zm158,6.33a42.5,42.5,0,0,1,4.78,1.47c1.83.94,7.66,7.12,8.95,9.53a42.35,42.35,0,0,1,3.42,10.29c1.19,5.68,0,18.87-3.56,39.26-3.49,20.1-5,30.1-5.25,34.16a35.93,35.93,0,0,1-.54,5.21c-.36,1.12-1.87,3.06-2.37,3.06-.15,0-8.06-3.88-17.55-8.59l-17.29-8.6-1.66-3.92a147.07,147.07,0,0,1-7.12-19.52c-1.69-6.55-1.22-17.91,1.08-27.15,1-3.92,1.69-5.72,4.32-11,3.52-7,4.74-8.74,11.11-15.21,5.17-5.33,7.26-6.91,11.36-8.85C445.91,220.81,446.31,220.81,452.53,222.36Z"/></g></g></svg>