<svg xmlns="http://www.w3.org/2000/svg" viewBox="0 0 735 980"><defs><style>.cls-1,.cls-2,.cls-3{stroke:#000;stroke-miterlimit:10;}.cls-1,.cls-2{stroke-width:4px;}.cls-2{fill:#fff;}.cls-3{fill:none;stroke-width:2px;}</style></defs><title>Fichier 1</title><g id="Calque_2" data-name="Calque 2"><g id="Calque_1-2" data-name="Calque 1"><g id="marqueur"><g id="Calque_1-2-2" data-name="Calque 1-2"><path d="M367.5,0C164.5,0,0,164.5,0,367.5S367.5,980,367.5,980,735,570.5,735,367.5,570.5,0,367.5,0Zm0,612.5c-135.3,0-245-109.7-245-245s109.7-245,245-245,245,109.7,245,245S502.8,612.5,367.5,612.5Z"/></g></g><g id="tableau"><g id="tableau-2" data-name="tableau"><path class="cls-1" d="M366.06,193.61s-6.43.59-6.43,2.92c0,0-15.76,0-15.18,5.84H282s-4.09-5.25-9.34,0h-7s-7.59-11.68-19.27-7c0,0-9.34-2.33-11.67,0,0,0-4.67-3.5-12.27-.58,0,0-.58,6.42,1.17,8.76,0,0-2.33,8.76,0,11.09s-8.17,20.42,4.08,26.84V245s-8.75.58,1.76,9.34V343.1s-15.77,10.51-6.42,18.1c0,0-15.19,7,0,16.35,0,0-9.35,8.76,5.84,21l1.17,1.17V488.5s-11.1,5.84,1.16,9.34c0,0-14,19.86-5.84,28.61,0,0-5.83,5.25,0,8.18,0,0-4.08,9.92-1.75,13.43,0,0,7.59,1.16,11.1-1.17,0,0,4.67,3.5,9.34.58,0,0,14.6,6.43,27.44-4.08h72.38s3.51,9.92,15.77,4.67c0,0,1.75,5.25,6.42,4.67"/><path class="cls-1" d="M366.06,193.61s6.42.59,6.42,2.92c0,0,15.76,0,15.18,5.84h62.48s4.09-5.25,9.34,0h7s7.59-11.68,19.26-7c0,0,9.35-2.33,11.68,0,0,0,4.68-3.5,12.26-.58,0,0,.59,6.42-1.16,8.76,0,0,2.33,8.76,0,11.09s8.16,20.42-4.09,26.84V245s8.76.58-1.75,9.34V343.1s15.77,10.51,6.43,18.1c0,0,15.18,7,0,16.35,0,0,9.34,8.76-5.84,21l-1.17,1.17V488.5s11.09,5.84-1.17,9.34c0,0,14,19.86,5.84,28.61,0,0,5.84,5.25,0,8.18,0,0,4.09,9.92,1.75,13.43,0,0-7.59,1.16-11.09-1.17,0,0-4.67,3.5-9.34.58,0,0-14.6,6.43-27.45-4.08H388.26s-3.5,9.92-15.77,4.67c0,0-1.75,5.25-6.42,4.67"/><path class="cls-1" d="M366.78,217.85H259.13s2.37,6.76-5.32,8.61c0,0-1.18,291-.59,295.3,0,0,6.51-.61,5.35,6.15H366.78"/><path class="cls-1" d="M366.11,217.85H473.75s-2.36,6.76,5.36,8.61c0,0,1.18,291,.58,295.3,0,0-6.5-.61-5.35,6.15H366.11"/><rect class="cls-1" x="239.93" y="209.38" width="251.67" height="326.42"/><rect class="cls-2" x="245.77" y="214.05" width="239.99" height="316.49"/></g><g id="reflets"><line class="cls-3" x1="293.42" y1="364.75" x2="376.69" y2="294.05"/><line class="cls-3" x1="290.18" y1="378.43" x2="390.72" y2="293.07"/><line class="cls-3" x1="314.49" y1="370.7" x2="379.15" y2="315.81"/><line class="cls-3" x1="310.45" y1="385.92" x2="394.82" y2="314.29"/><line class="cls-3" x1="306.46" y1="400.44" x2="409.79" y2="312.71"/><line class="cls-3" x1="337.1" y1="386.65" x2="391.22" y2="340.71"/><line class="cls-3" x1="328.45" y1="406.24" x2="411.72" y2="335.55"/><line class="cls-3" x1="325.21" y1="419.92" x2="425.75" y2="334.56"/><line class="cls-3" x1="349.52" y1="412.2" x2="414.18" y2="357.3"/><line class="cls-3" x1="345.48" y1="427.41" x2="429.85" y2="355.78"/><line class="cls-3" x1="341.5" y1="441.93" x2="444.82" y2="354.21"/><line class="cls-3" x1="366.19" y1="433.23" x2="432.46" y2="376.97"/></g></g></g></g></svg>